<?xml version="1.0" standalone="no"?><!DOCTYPE svg PUBLIC "-//W3C//DTD SVG 1.1//EN" "http://www.w3.org/Graphics/SVG/1.1/DTD/svg11.dtd"><svg t="1501636796098" class="icon" style="" viewBox="0 0 1024 1024" version="1.1" xmlns="http://www.w3.org/2000/svg" p-id="3154" xmlns:xlink="http://www.w3.org/1999/xlink" width="16" height="16"><defs><style type="text/css">@font-face { font-family: uc-nexus-iconfont; src: url("chrome-extension://pogijhnlcfmcppgimcaccdkmbedjkmhi/res/font_9qmmi8b8jsxxbt9.woff") format("woff"), url("chrome-extension://pogijhnlcfmcppgimcaccdkmbedjkmhi/res/font_9qmmi8b8jsxxbt9.ttf") format("truetype"); }
</style></defs><path d="M832 192 256 192C185.6 192 128 249.6 128 320l0 448c0 70.4 57.6 128 128 128l576 0c70.4 0 128-57.6 128-128L960 320C960 249.6 902.4 192 832 192zM256 256l576 0c6.4 0 12.16 1.92 17.92 3.84-3.2 1.28-5.76 3.2-8.32 5.76L544 562.56 246.4 264.96C243.84 262.4 241.28 261.12 238.08 259.84 243.84 257.92 249.6 256 256 256zM896 768c0 35.2-28.8 64-64 64L256 832c-35.2 0-64-28.8-64-64L192 320c0-6.4 1.92-12.16 3.84-17.92C197.12 305.28 198.4 307.84 200.96 310.4l318.72 318.72C526.08 635.52 535.04 638.72 544 638.08c8.96 0.64 17.92-2.56 24.32-8.96l318.72-318.72c2.56-2.56 3.84-5.12 5.76-8.32C894.08 307.84 896 313.6 896 320L896 768z" p-id="3155" fill="#515151"></path></svg>