<?xml version="1.0" standalone="no"?><!DOCTYPE svg PUBLIC "-//W3C//DTD SVG 1.1//EN" "http://www.w3.org/Graphics/SVG/1.1/DTD/svg11.dtd"><svg t="1501522318009" class="icon" style="" viewBox="0 0 1024 1024" version="1.1" xmlns="http://www.w3.org/2000/svg" p-id="3906" xmlns:xlink="http://www.w3.org/1999/xlink" width="16" height="16"><defs><style type="text/css">@font-face { font-family: uc-nexus-iconfont; src: url("chrome-extension://pogijhnlcfmcppgimcaccdkmbedjkmhi/res/font_9qmmi8b8jsxxbt9.woff") format("woff"), url("chrome-extension://pogijhnlcfmcppgimcaccdkmbedjkmhi/res/font_9qmmi8b8jsxxbt9.ttf") format("truetype"); }
</style></defs><path d="M0 0v1024h1024V0H0z m762.88 784.896c0 17.408-6.656 31.232-17.92 40.96-11.264 9.728-27.136 15.36-45.056 15.36H181.76c-34.816 0-62.976-21.504-62.976-56.32v-15.36c0-31.744 23.552-59.904 53.248-70.656l128-57.344s34.816-10.752 44.032-21.504c6.144-7.168 8.192-30.72 0.512-46.08-8.192-15.36-73.216-99.84-73.216-171.008 0-114.176 75.264-207.36 167.936-207.36 8.192 0 16.384 0.512 24.576 2.048l7.68 1.536c77.312 18.432 136.192 102.4 136.192 203.264 0 74.24-72.704 155.648-78.848 175.616-6.144 19.968-6.656 35.84 0.512 42.496 10.752 10.24 37.888 20.992 37.888 20.992l142.336 55.296c30.208 10.752 53.248 39.936 53.248 71.68v16.384z m138.752-16.896c0 34.816-28.16 56.32-62.976 56.32h-47.104c11.264-9.728 17.92-23.552 17.92-40.96v-15.36c0-31.744-23.552-60.928-53.248-71.68l-142.336-55.296s-27.136-10.752-37.888-20.992c-6.656-6.656-6.144-22.528-0.512-42.496 6.144-19.968 78.848-101.376 78.848-175.616 0-100.864-58.368-184.832-136.192-203.264l-7.68-1.536c20.48-11.264 43.52-17.408 67.584-17.408 92.672 0 167.936 92.672 167.936 207.36 0 74.24-72.704 155.648-78.848 175.616-6.144 19.968-6.656 35.84 0.512 42.496 10.752 10.24 37.888 20.992 37.888 20.992l142.336 55.296c30.208 10.752 53.248 39.936 53.248 71.68v14.848z" p-id="3907" fill="#00C853"></path></svg>