<?xml version="1.0" standalone="no"?><!DOCTYPE svg PUBLIC "-//W3C//DTD SVG 1.1//EN" "http://www.w3.org/Graphics/SVG/1.1/DTD/svg11.dtd"><svg t="1501738580528" class="icon" style="" viewBox="0 0 1024 1024" version="1.1" xmlns="http://www.w3.org/2000/svg" p-id="2382" xmlns:xlink="http://www.w3.org/1999/xlink" width="16" height="16"><defs><style type="text/css">@font-face { font-family: uc-nexus-iconfont; src: url("chrome-extension://pogijhnlcfmcppgimcaccdkmbedjkmhi/res/font_9qmmi8b8jsxxbt9.woff") format("woff"), url("chrome-extension://pogijhnlcfmcppgimcaccdkmbedjkmhi/res/font_9qmmi8b8jsxxbt9.ttf") format("truetype"); }
</style></defs><path d="M726.464009 686.933333C649.151002 659.114667 631.85408 599.146667 647.61498 563.392 663.398144 527.637333 772.900783 456.106667 772.900783 281.706667 772.900783 96.810667 627.513156 0 512 0 396.486845 0 251.099215 96.810667 251.099215 281.706667 251.099215 456.106667 360.601857 527.637333 376.385019 563.392 392.14592 599.146667 374.848999 659.114667 297.535993 686.933333 158.648622 736.896 11.190704 805.866667 0.037863 999.850667-0.719016 1012.864 9.96634 1024 23.590169 1024L512 1024 1000.40983 1024C1014.03366 1024 1024.719014 1012.864 1023.962138 999.850667 1012.809297 805.866667 865.351377 736.896 726.464009 686.933333" p-id="2383" fill="#1afa29"></path></svg>