<?xml version="1.0" standalone="no"?><!DOCTYPE svg PUBLIC "-//W3C//DTD SVG 1.1//EN" "http://www.w3.org/Graphics/SVG/1.1/DTD/svg11.dtd"><svg t="1501738792290" class="icon" style="" viewBox="0 0 1024 1024" version="1.1" xmlns="http://www.w3.org/2000/svg" p-id="3111" xmlns:xlink="http://www.w3.org/1999/xlink" width="16" height="16"><defs><style type="text/css">@font-face { font-family: uc-nexus-iconfont; src: url("chrome-extension://pogijhnlcfmcppgimcaccdkmbedjkmhi/res/font_9qmmi8b8jsxxbt9.woff") format("woff"), url("chrome-extension://pogijhnlcfmcppgimcaccdkmbedjkmhi/res/font_9qmmi8b8jsxxbt9.ttf") format("truetype"); }
</style></defs><path d="M870.807603 953.77408H51.797043l-43.1616-27.5456-2.63168-7.9872c-1.28-3.94752-12.25728-39.24992-0.82944-75.98592l1.14688-3.73248 2.31936-3.18976c26.66496-36.56704 93.35808-73.17504 163.93728-111.94368 64.65024-35.47648 162.31936-89.10336 162.92864-117.71904l0.05632-26.97728c-61.696-59.62752-95.52896-140.79488-95.52896-229.84704 0-137.7792 26.27072-278.6048 221.29664-278.62528 195.04128 0.0256 221.29152 140.87168 221.29152 278.62528 0 89.07776-33.90976 170.28096-95.53408 229.81632l0.08704 27.48416c0.56832 28.02688 98.2784 81.72544 162.92864 117.21216 70.528 38.78912 137.22112 75.37152 163.8912 111.91296l2.2784 3.21024 1.19808 3.712c11.392 36.736 0.4352 72.09472-0.87552 76.01664l-2.61632 7.96672-43.17184 27.5968zM761.577523 311.59296h263.05024v48.00512h-263.05024zM809.777203 478.6432h214.85056v47.98464h-214.85056zM880.986163 646.29248h143.6416v47.43168h-143.6416z" p-id="3112" fill="#1afa29"></path></svg>