<?xml version="1.0" standalone="no"?><!DOCTYPE svg PUBLIC "-//W3C//DTD SVG 1.1//EN" "http://www.w3.org/Graphics/SVG/1.1/DTD/svg11.dtd"><svg t="1501472125286" class="icon" style="" viewBox="0 0 1024 1024" version="1.1" xmlns="http://www.w3.org/2000/svg" p-id="1824" xmlns:xlink="http://www.w3.org/1999/xlink" width="16" height="16"><defs><style type="text/css">@font-face { font-family: uc-nexus-iconfont; src: url("chrome-extension://pogijhnlcfmcppgimcaccdkmbedjkmhi/res/font_9qmmi8b8jsxxbt9.woff") format("woff"), url("chrome-extension://pogijhnlcfmcppgimcaccdkmbedjkmhi/res/font_9qmmi8b8jsxxbt9.ttf") format("truetype"); }
</style></defs><path d="M524.51964 386.853745c-113.347534 0-205.551516 92.213191-205.551516 205.553563 0 113.330138 92.203982 205.555609 205.551516 205.555609 113.334231 0 205.547423-92.225471 205.547423-205.555609C730.067063 479.066937 637.853871 386.853745 524.51964 386.853745zM524.51964 731.179908c-76.526931 0-138.777717-62.245669-138.777717-138.7726s62.250786-138.76953 138.777717-138.76953c76.518744 0 138.7726 62.2426 138.7726 138.76953S601.039407 731.179908 524.51964 731.179908zM863.630011 281.017278 730.067063 281.017278c0-57.305147-44.934398-102.33062-100.17042-102.33062l-166.942173 0c-55.236022 0-100.168374 45.025473-100.168374 102.33062L258.417049 281.017278l0-33.979906c0-18.438954-14.302751-33.387411-32.745798-33.387411-18.443048 0-32.745798 14.948457-32.745798 33.387411l0 33.979906-30.467919 0c-55.241139 0-99.491968 44.342927-99.491968 99.578949l0 434.059883c0 55.240115 44.249807 93.64889 99.491968 93.64889l701.172477 0c55.227836 0 95.751784-38.407752 95.751784-93.64889L959.381795 380.596228C959.381795 325.360206 918.857846 281.017278 863.630011 281.017278zM893.890198 814.656111c0 18.421558-11.842723 28.157293-30.260188 28.157293L162.457534 842.813405c-18.411325 0-34.000372-9.735735-34.000372-28.157293L128.457162 380.596228c0-18.405185 15.589047-35.110659 34.000372-35.110659l233.725182 0c18.441001 0 29.034267-13.228279 29.034267-31.673373L425.216983 280.429901c0-18.413372 19.324114-36.250622 37.739533-36.250622l166.942173 0c18.420535 0 31.702026 17.83725 31.702026 36.250622l0 33.383318c0 18.445094 16.619516 31.673373 35.07996 31.673373l166.949336 0c18.417465 0 30.260188 16.70445 30.260188 35.110659L893.890198 814.656111z" p-id="1825" fill="#dbdbdb"></path></svg>