<?xml version="1.0" standalone="no"?><!DOCTYPE svg PUBLIC "-//W3C//DTD SVG 1.1//EN" "http://www.w3.org/Graphics/SVG/1.1/DTD/svg11.dtd"><svg t="1501571169925" class="icon" style="" viewBox="0 0 1024 1024" version="1.1" xmlns="http://www.w3.org/2000/svg" p-id="4547" xmlns:xlink="http://www.w3.org/1999/xlink" width="16" height="16"><defs><style type="text/css">@font-face { font-family: uc-nexus-iconfont; src: url("chrome-extension://pogijhnlcfmcppgimcaccdkmbedjkmhi/res/font_9qmmi8b8jsxxbt9.woff") format("woff"), url("chrome-extension://pogijhnlcfmcppgimcaccdkmbedjkmhi/res/font_9qmmi8b8jsxxbt9.ttf") format("truetype"); }
</style></defs><path d="M972.691923 790.572899H444.726882L197.458356 1016.377736a25.957412 25.957412 0 0 1-36.196274 0 24.459504 24.459504 0 0 1-7.205125-19.207348c-0.075843-0.815317-0.474021-1.516868-0.474022-2.332185V790.572899H51.194312c-28.270637 0-51.194312-22.601341-51.194312-50.473799V50.435877C0 22.58238 22.923675-0.018961 51.194312-0.018961h921.497611c28.270637 0 51.194312 22.601341 51.194312 50.454838v689.663223c0 27.872459-22.923675 50.473799-51.194312 50.473799z m0-723.299781a16.951005 16.951005 0 0 0-17.06477-16.837241H68.259082c-9.423546 0-17.064771 7.546421-17.06477 16.837241V723.280821c0 9.29082 7.641225 16.818279 17.06477 16.818279h97.231271c4.019702-2.559716 8.532385-4.43684 13.689738-4.43684 5.157353 0 9.670037 1.877125 13.689738 4.43684h11.907418v201.07988l207.810984-189.79817c1.611673-1.573751 3.469837-2.616598 5.346961-3.602563 1.55479-0.644669 3.147502-1.232456 4.721254-1.839203 1.32726-0.379217 2.597637-0.910121 3.962819-1.137652v-0.398178c4.816057-1.668555 9.74588-3.09062 14.789467-4.304114H955.627153c9.423546 0 17.064771-7.52746 17.06477-16.818279V67.273118z" fill="#FAFAFA" p-id="4548"></path></svg>