<?xml version="1.0" standalone="no"?><!DOCTYPE svg PUBLIC "-//W3C//DTD SVG 1.1//EN" "http://www.w3.org/Graphics/SVG/1.1/DTD/svg11.dtd"><svg t="1501524664972" class="icon" style="" viewBox="0 0 1024 1024" version="1.1" xmlns="http://www.w3.org/2000/svg" p-id="17825" xmlns:xlink="http://www.w3.org/1999/xlink" width="16" height="16"><defs><style type="text/css">@font-face { font-family: uc-nexus-iconfont; src: url("chrome-extension://pogijhnlcfmcppgimcaccdkmbedjkmhi/res/font_9qmmi8b8jsxxbt9.woff") format("woff"), url("chrome-extension://pogijhnlcfmcppgimcaccdkmbedjkmhi/res/font_9qmmi8b8jsxxbt9.ttf") format("truetype"); }
</style></defs><path d="M42.48064 651.635712h547.510272c23.460864 0 42.479616-19.50208 42.479616-43.767808V43.767808C632.470528 19.595264 613.541888 0 589.989888 0H42.48064C19.018752 0 0 19.50208 0 43.767808v564.100096c0 24.172544 18.92864 43.767808 42.48064 43.767808z m77.989888-527.514624H512v403.39456H120.470528v-403.39456zM589.659136 713.696256H554.81344c-23.989248 0-42.812416 19.748864-42.812416 44.109824v35.90144c0 24.716288 19.168256 44.109824 42.812416 44.109824h34.845696c23.989248 0 42.812416-19.748864 42.812416-44.109824v-35.90144c0-24.715264-19.168256-44.109824-42.812416-44.109824zM765.636608 124.121088h34.845696c23.989248 0 42.812416-19.748864 42.812416-44.109824v-35.90144C843.29472 19.39456 824.126464 0 800.482304 0h-34.845696c-23.989248 0-42.812416 19.748864-42.812416 44.109824v35.90144c0 24.716288 19.167232 44.109824 42.812416 44.109824zM42.749952 837.818368h336.146432c23.537664 0 42.749952-19.748864 42.749952-44.109824v-35.90144c0-24.716288-19.139584-44.109824-42.749952-44.109824H42.749952C19.213312 713.696256 0 733.44512 0 757.80608v35.90144c0 24.716288 19.139584 44.110848 42.749952 44.110848zM765.636608 651.635712h34.845696c23.989248 0 42.812416-19.720192 42.812416-44.045312V261.257216c0-24.250368-19.168256-44.045312-42.812416-44.045312h-34.845696c-23.989248 0-42.812416 19.720192-42.812416 44.045312V607.5904c0 24.250368 19.167232 44.045312 42.812416 44.045312z" fill="#707070" p-id="17826"></path><path d="M378.983424 217.211904H253.487104c-23.206912 0-42.662912 19.680256-42.662912 43.956224v129.299456c0 23.9104 19.100672 43.956224 42.662912 43.956224h125.497344c23.206912 0 42.662912-19.680256 42.662912-43.956224V261.168128c0-23.9104-19.101696-43.956224-42.663936-43.956224zM981.487616 713.696256H765.336576c-23.479296 0-42.512384 19.410944-42.512384 43.800576v222.701568c0 24.189952 18.839552 43.800576 42.512384 43.800576h216.15104c23.479296 0 42.512384-19.410944 42.512384-43.800576V757.496832c0-24.189952-18.839552-43.800576-42.512384-43.800576zM933.64736 930.90816H813.176832V806.787072h120.470528V930.90816zM981.187584 527.515648h-34.845696c-23.989248 0-42.812416 19.748864-42.812416 44.109824v35.90144c0 24.716288 19.168256 44.109824 42.812416 44.109824h34.845696c23.989248 0 42.812416-19.748864 42.812416-44.109824v-35.90144c0-24.716288-19.168256-44.109824-42.812416-44.109824zM981.187584 0h-34.845696c-23.989248 0-42.812416 19.720192-42.812416 44.045312v346.33216c0 24.250368 19.168256 44.046336 42.812416 44.046336h34.845696c23.989248 0 42.812416-19.720192 42.812416-44.046336V44.045312C1024 19.794944 1004.831744 0 981.187584 0zM77.658112 899.878912H42.812416C18.823168 899.878912 0 919.627776 0 943.988736v35.90144C0 1004.606464 19.168256 1024 42.812416 1024h34.845696c23.989248 0 42.812416-19.748864 42.812416-44.109824v-35.90144c0-24.716288-19.167232-44.109824-42.812416-44.109824zM620.086272 899.878912H253.324288c-23.089152 0-42.50112 19.748864-42.50112 44.109824v35.90144c0 24.716288 19.027968 44.109824 42.50112 44.109824h366.761984c23.089152 0 42.50112-19.748864 42.50112-44.109824v-35.90144c0-24.716288-19.027968-44.109824-42.50112-44.109824z" fill="#707070" p-id="17827"></path></svg>