<?xml version="1.0" standalone="no"?><!DOCTYPE svg PUBLIC "-//W3C//DTD SVG 1.1//EN" "http://www.w3.org/Graphics/SVG/1.1/DTD/svg11.dtd"><svg t="1501524527836" class="icon" style="" viewBox="0 0 1024 1024" version="1.1" xmlns="http://www.w3.org/2000/svg" p-id="14335" xmlns:xlink="http://www.w3.org/1999/xlink" width="16" height="16"><defs><style type="text/css">@font-face { font-family: uc-nexus-iconfont; src: url("chrome-extension://pogijhnlcfmcppgimcaccdkmbedjkmhi/res/font_9qmmi8b8jsxxbt9.woff") format("woff"), url("chrome-extension://pogijhnlcfmcppgimcaccdkmbedjkmhi/res/font_9qmmi8b8jsxxbt9.ttf") format("truetype"); }
</style></defs><path d="M 960 854.717 c 0 12.502 -2.136 24.175 -6.414 35.033 c -4.276 10.856 -10.361 20.393 -18.25 28.619 a 85.274 85.274 0 0 1 -27.636 19.238 c -10.522 4.608 -22.034 6.907 -34.538 6.907 H 156.758 c -12.497 0 -24.343 -2.302 -35.525 -6.907 c -11.181 -4.601 -21.047 -11.015 -29.601 -19.238 a 92.246 92.246 0 0 1 -20.228 -28.619 C 66.467 878.894 64 867.221 64 854.717 V 362.309 c 0 -24.994 8.713 -46.211 26.149 -63.645 c 17.434 -17.431 38.651 -26.152 63.649 -26.152 h 716.407 c 24.999 0 46.216 8.72 63.647 26.152 C 951.289 316.098 960 337.315 960 362.309 v 134.205 H 736.003 c -25.001 0 -46.218 8.55 -63.649 25.654 c -17.434 17.104 -26.149 38.156 -26.149 63.154 c 0.658 17.104 4.278 32.237 10.856 45.392 c 5.259 11.185 13.979 21.381 26.149 30.591 c 12.173 9.208 29.77 13.816 52.793 13.816 H 960 v 179.596 Z M 825.799 227.121 H 377.798 a 6284.31 6284.31 0 0 0 100.655 -53.284 a 9361.99 9361.99 0 0 0 81.907 -43.422 c 26.971 -14.469 48.022 -25.654 63.155 -33.551 c 23.024 -12.499 43.583 -18.258 61.675 -17.27 c 18.087 0.987 33.385 4.113 45.88 9.374 c 14.476 7.238 26.976 16.775 37.503 28.619 l 57.226 109.534 Z M 691.598 585.326 c 0 -12.497 4.279 -23.021 12.828 -31.578 c 8.555 -8.55 19.079 -12.826 31.578 -12.826 c 12.497 0 23.024 4.276 31.576 12.826 c 8.55 8.555 12.828 19.081 12.828 31.578 s -4.279 23.19 -12.828 32.071 c -8.552 8.881 -19.079 13.321 -31.576 13.321 s -23.024 -4.442 -31.578 -13.321 c -8.551 -8.884 -12.828 -19.574 -12.828 -32.071 Z" fill="#1296db" p-id="14336"></path></svg>