<?xml version="1.0" standalone="no"?><!DOCTYPE svg PUBLIC "-//W3C//DTD SVG 1.1//EN" "http://www.w3.org/Graphics/SVG/1.1/DTD/svg11.dtd"><svg t="1501524840031" class="icon" style="" viewBox="0 0 1024 1024" version="1.1" xmlns="http://www.w3.org/2000/svg" p-id="18647" xmlns:xlink="http://www.w3.org/1999/xlink" width="16" height="16"><defs><style type="text/css">@font-face { font-family: uc-nexus-iconfont; src: url("chrome-extension://pogijhnlcfmcppgimcaccdkmbedjkmhi/res/font_9qmmi8b8jsxxbt9.woff") format("woff"), url("chrome-extension://pogijhnlcfmcppgimcaccdkmbedjkmhi/res/font_9qmmi8b8jsxxbt9.ttf") format("truetype"); }
</style></defs><path d="M511.936 36.672c-261.12 0-472.768 212.8-472.768 475.328s211.712 475.328 472.768 475.328c261.248 0 472.896-212.8 472.896-475.328S773.12 36.672 511.936 36.672zM509.12 152.064c88.96 0 161.024 72.128 161.024 161.024 0 89.024-72.064 161.088-161.024 161.088S348.096 402.112 348.096 313.088C348.096 224.192 420.16 152.064 509.12 152.064zM227.328 827.136c-1.664-164.992 79.04-267.584 180.224-307.84l103.936 173.12 109.312-169.216c97.536 42.624 175.232 143.872 176.896 303.936C618.304 898.368 429.056 903.552 227.328 827.136z" p-id="18648" fill="#1296db"></path></svg>