<?xml version="1.0" standalone="no"?><!DOCTYPE svg PUBLIC "-//W3C//DTD SVG 1.1//EN" "http://www.w3.org/Graphics/SVG/1.1/DTD/svg11.dtd"><svg t="1501524469954" class="icon" style="" viewBox="0 0 1024 1024" version="1.1" xmlns="http://www.w3.org/2000/svg" p-id="13295" xmlns:xlink="http://www.w3.org/1999/xlink" width="16" height="16"><defs><style type="text/css">@font-face { font-family: uc-nexus-iconfont; src: url("chrome-extension://pogijhnlcfmcppgimcaccdkmbedjkmhi/res/font_9qmmi8b8jsxxbt9.woff") format("woff"), url("chrome-extension://pogijhnlcfmcppgimcaccdkmbedjkmhi/res/font_9qmmi8b8jsxxbt9.ttf") format("truetype"); }
</style></defs><path d="M997.963509 84.58342 26.038538 84.58342c-12.397355 0-22.428825 10.075473-22.428825 22.428825l0 537.876344c0 0.00921 0 0.01842 0 0.026606L3.609713 916.987754c0 12.441357 10.031471 22.428825 22.428825 22.428825l971.924971 0c12.399401 0 22.428825-9.987468 22.428825-22.428825L1020.392334 107.012246C1020.392334 94.658893 1010.363933 84.58342 997.963509 84.58342zM975.534683 129.441071l0 602.007967L764.08483 550.240953 544.921295 696.29233 250.98273 380.01192 48.467363 589.115332 48.467363 129.441071 975.534683 129.441071zM48.467363 894.558929 48.467363 653.593855l201.814402-208.398354L538.08868 754.816235l222.578308-148.414191 193.228863 165.587316c4.204765 3.590781 9.419534 5.344728 14.58723 5.344728 2.385327 0 4.76963-0.376577 7.052626-1.12359l0 118.347408L48.467363 894.557906z" p-id="13296" fill="#1296db"></path><path d="M565.424258 484.796428c76.265988 0 138.339742-62.116733 138.339742-138.426723 0-76.311013-62.073754-138.427746-138.339742-138.427746-76.311013 0-138.427746 62.116733-138.427746 138.427746C426.995489 422.678672 489.113245 484.796428 565.424258 484.796428zM565.424258 252.798587c51.55826 0 93.483114 41.965787 93.483114 93.570095 0 51.603285-41.924855 93.569072-93.483114 93.569072-51.605332 0-93.571119-41.965787-93.571119-93.569072C471.85314 294.764374 513.818927 252.798587 565.424258 252.798587z" p-id="13297" fill="#1296db"></path></svg>