<?xml version="1.0" standalone="no"?><!DOCTYPE svg PUBLIC "-//W3C//DTD SVG 1.1//EN" "http://www.w3.org/Graphics/SVG/1.1/DTD/svg11.dtd"><svg t="1501524554770" class="icon" style="" viewBox="0 0 1024 1024" version="1.1" xmlns="http://www.w3.org/2000/svg" p-id="15076" xmlns:xlink="http://www.w3.org/1999/xlink" width="16" height="16"><defs><style type="text/css">@font-face { font-family: uc-nexus-iconfont; src: url("chrome-extension://pogijhnlcfmcppgimcaccdkmbedjkmhi/res/font_9qmmi8b8jsxxbt9.woff") format("woff"), url("chrome-extension://pogijhnlcfmcppgimcaccdkmbedjkmhi/res/font_9qmmi8b8jsxxbt9.ttf") format("truetype"); }
</style></defs><path d="M512 64.512q92.16 0 174.08 35.328t142.336 95.744 95.744 142.336 35.328 174.08q0 93.184-35.328 174.592t-95.744 142.336-142.336 95.744-174.08 34.816q-93.184 0-174.592-34.816t-142.336-95.744-96.256-142.336-35.328-174.592q0-92.16 35.328-174.08t96.256-142.336 142.336-95.744 174.592-35.328zM673.792 286.72q-29.696 0-50.176 24.576t-20.48 59.392q0 35.84 20.48 60.416t50.176 24.576 50.176-24.576 20.48-60.416q0-34.816-20.48-59.392t-50.176-24.576zM342.016 288.768q-28.672 0-48.64 24.576t-19.968 59.392q0 35.84 19.968 59.904t48.64 24.064 49.152-24.064 20.48-59.904q0-34.816-20.48-59.392t-49.152-24.576zM516.096 844.8q54.272 0 102.912-19.456t87.552-53.248 66.048-78.848 38.4-96.256l0-5.12q0-8.192-6.144-14.848t-15.36-6.656l-547.84 0q-9.216 0-16.896 6.656t-5.632 14.848q2.048 10.24 3.072 14.336t2.048 6.144q13.312 49.152 40.96 91.648t65.024 73.728 84.48 49.152 101.376 17.92z" p-id="15077" fill="#f4ea2a"></path></svg>