<?xml version="1.0" standalone="no"?><!DOCTYPE svg PUBLIC "-//W3C//DTD SVG 1.1//EN" "http://www.w3.org/Graphics/SVG/1.1/DTD/svg11.dtd"><svg t="1501524580437" class="icon" style="" viewBox="0 0 1024 1024" version="1.1" xmlns="http://www.w3.org/2000/svg" p-id="15810" xmlns:xlink="http://www.w3.org/1999/xlink" width="16" height="16"><defs><style type="text/css">@font-face { font-family: uc-nexus-iconfont; src: url("chrome-extension://pogijhnlcfmcppgimcaccdkmbedjkmhi/res/font_9qmmi8b8jsxxbt9.woff") format("woff"), url("chrome-extension://pogijhnlcfmcppgimcaccdkmbedjkmhi/res/font_9qmmi8b8jsxxbt9.ttf") format("truetype"); }
</style></defs><path d="M870.127795 449.354879h-53.565445c-7.955613-36.748107-22.554506-71.006954-42.486202-101.466064l38.195847-38.215322c5.893905-5.893905 5.893905-15.475328 0-21.367379l-67.20629-67.218346c-5.915237-5.90318-15.494804-5.90318-21.388709-0.011129l-38.29972 38.311777c-30.458183-19.837096-64.666021-34.364576-101.361263-42.236719v-53.918802c0-8.34143-6.768485-15.110842-15.120117-15.110842H473.833832c-8.346067 0-15.114552 6.769412-15.114552 15.110842v53.304834c-37.071785 7.602257-71.626486 22.03421-102.424114 41.820297l-37.26933-37.270258c-5.893905-5.893905-15.4744-5.893905-21.368306 0.01113l-67.217418 67.207216c-5.904107 5.914309-5.904107 15.483675-0.010202 21.378508l36.591369 36.590441c-20.471468 30.864403-35.435774 65.687136-43.522157 103.080744h-50.904609c-8.340502 0-15.109915 6.769412-15.109915 15.120117V559.526859c0 8.350704 6.769412 15.120117 15.109915 15.120116h50.097733c7.716333 37.88237 22.545232 73.163261 42.944359 104.474692l-35.196493 35.195566c-5.892978 5.905035-5.892978 15.464198 0.011129 21.378507l67.217419 67.207217c5.892978 5.905035 15.4744 5.914309 21.367378 0.011129l35.092619-35.092619c31.332762 20.503001 66.648895 35.425572 104.589695 43.204043v49.74345c0 8.34143 6.768485 15.110842 15.114552 15.110842h95.062065c8.351632 0 15.120117-6.769412 15.120116-15.110842v-50.357418c37.560547-8.060414 72.538164-23.0646 103.516643-43.620465l36.144341 36.134139c5.893905 5.892978 15.453069 5.892978 21.368305-0.01113l67.206289-67.218346c5.915237-5.892978 5.915237-15.473473 0.020404-21.367378l-36.820447-36.809318c19.868629-30.917267 34.342317-65.635199 41.923243-102.872069h52.753005c8.351632 0 15.120117-6.769412 15.120116-15.120116V464.474996c0-8.350704-6.767558-15.120117-15.119189-15.120117zM520.031664 747.921305c-129.316275 0-234.14525-104.828048-234.145251-234.139685 0-129.320912 104.828975-234.139685 234.145251-234.139686s234.134121 104.819701 234.13412 234.139686c0.000927 129.31071-104.817846 234.139685-234.13412 234.139685z" p-id="15811" fill="#1296db"></path></svg>