<?xml version="1.0" standalone="no"?><!DOCTYPE svg PUBLIC "-//W3C//DTD SVG 1.1//EN" "http://www.w3.org/Graphics/SVG/1.1/DTD/svg11.dtd"><svg t="1501524374105" class="icon" style="" viewBox="0 0 1024 1024" version="1.1" xmlns="http://www.w3.org/2000/svg" p-id="10662" xmlns:xlink="http://www.w3.org/1999/xlink" width="16" height="16"><defs><style type="text/css">@font-face { font-family: uc-nexus-iconfont; src: url("chrome-extension://pogijhnlcfmcppgimcaccdkmbedjkmhi/res/font_9qmmi8b8jsxxbt9.woff") format("woff"), url("chrome-extension://pogijhnlcfmcppgimcaccdkmbedjkmhi/res/font_9qmmi8b8jsxxbt9.ttf") format("truetype"); }
</style></defs><path d="M959.333 848.435c0 12.261-2.136 23.679-6.389 34.312-4.259 10.605-10.33 19.952-18.199 28.026-7.875 8.061-17.059 14.346-27.56 18.827-10.493 4.495-21.977 6.758-34.446 6.773H158.321c-12.468 0-24.27-2.248-35.421-6.773-11.145-4.51-20.986-10.797-29.535-18.827-8.549-8.046-15.27-17.393-20.181-28.026-4.918-10.648-7.372-22.082-7.372-34.312V366.082c0-24.506 8.689-45.294 26.067-62.368 17.384-17.074 38.55-25.608 63.485-25.608h714.418c24.935 0 46.1 8.534 63.476 25.608 17.385 17.074 26.074 37.862 26.074 62.368v131.459H735.957c-24.943 0-46.106 8.379-63.484 25.142-17.386 16.765-26.074 37.396-26.074 61.872 0.651 16.766 4.259 31.592 10.833 44.481 5.251 10.952 13.94 20.935 26.074 29.971 12.127 9.035 29.684 13.548 52.651 13.548h223.377v175.939-0.059zM825.51 233.654H378.748c35.436-18.043 68.898-35.45 100.386-52.216a9784.117 9784.117 0 0 0 81.684-42.527c26.887-14.168 47.874-25.128 62.974-32.885 22.968-12.254 43.468-17.888 61.496-16.92 18.036 0.969 33.284 4.03 45.752 9.185 14.442 7.099 26.91 16.439 37.41 28.033l57.06 107.33zM691.677 584.556c0-12.253 4.267-22.569 12.787-30.932 8.526-8.37 19.019-12.564 31.494-12.564 12.469 0 22.962 4.194 31.479 12.564 8.527 8.363 12.787 18.68 12.787 30.932 0 12.246-4.259 22.725-12.787 31.422-8.518 8.704-19.011 13.06-31.479 13.06-12.474 0-22.967-4.355-31.494-13.06-8.52-8.698-12.787-19.176-12.787-31.422z" fill="#0065D2" p-id="10663"></path></svg>